<?xml version="1.0" encoding="utf-8"?>
<svg version="1.1" xmlns:xlink="http://www.w3.org/1999/xlink" width="40px" height="40px" xmlns="http://www.w3.org/2000/svg">
  <g transform="matrix(1 0 0 1 -14 -395 )">
    <path d="M 34 395  C 45.2 395  54 403.8  54 415  C 54 426.2  45.2 435  34 435  C 22.8 435  14 426.2  14 415  C 14 403.8  22.8 395  34 395  Z " fill-rule="nonzero" fill="#ffffff" stroke="none" />
    <path d="M 34 395.5  C 44.92 395.5  53.5 404.08  53.5 415  C 53.5 425.92  44.92 434.5  34 434.5  C 23.08 434.5  14.5 425.92  14.5 415  C 14.5 404.08  23.08 395.5  34 395.5  Z " stroke-width="1" stroke="#797979" fill="none" />
  </g>
</svg>