<?xml version="1.0" encoding="utf-8"?>
<svg version="1.1" xmlns:xlink="http://www.w3.org/1999/xlink" width="40px" height="50px" xmlns="http://www.w3.org/2000/svg">
  <defs>
    <filter x="449px" y="42px" width="40px" height="50px" filterUnits="userSpaceOnUse" id="filter4">
      <feOffset dx="1" dy="1" in="SourceAlpha" result="shadowOffsetInner" />
      <feGaussianBlur stdDeviation="2.5" in="shadowOffsetInner" result="shadowGaussian" />
      <feComposite in2="shadowGaussian" operator="atop" in="SourceAlpha" result="shadowComposite" />
      <feColorMatrix type="matrix" values="0 0 0 0 0  0 0 0 0 0  0 0 0 0 0  0 0 0 0.698039215686274 0  " in="shadowComposite" />
    </filter>
    <g id="widget5">
      <path d="M 468 85.0369284683536  C 462.2 75.4073405959099  453.5 69.6295878724437  453.5 60  C 453.5 54.9857142857143  456.4 46.5  468 46.5  C 479.6 46.5  482.5 54.9857142857143  482.5 60  C 482.5 69.6295878724437  473.8 75.4073405959099  468 85.0369284683536  Z " fill-rule="nonzero" fill="#009dd9" stroke="none" />
      <path d="M 468 86  C 462 76  453 70  453 60  C 453 54.8  456 46  468 46  C 480 46  483 54.8  483 60  C 483 70  474 76  468 86  Z M 468 84.0738569367072  C 473.6 74.8146811918198  482 69.2591757448874  482 60  C 482 55.1714285714286  479.2 47  468 47  C 456.8 47  454 55.1714285714286  454 60  C 454 69.2591757448874  462.4 74.8146811918198  468 84.0738569367072  Z " fill-rule="nonzero" fill="#ffffff" stroke="none" />
    </g>
  </defs>
  <g transform="matrix(1 0 0 1 -449 -42 )">
    <use xlink:href="#widget5" filter="url(#filter4)" />
    <use xlink:href="#widget5" />
  </g>
</svg>