<?xml version="1.0" encoding="utf-8"?>
<svg version="1.1" xmlns:xlink="http://www.w3.org/1999/xlink" width="59px" height="59px" xmlns="http://www.w3.org/2000/svg">
  <g transform="matrix(1 0 0 1 -26 -46 )">
    <path d="M 55.5 46  C 72.02 46  85 58.98  85 75.5  C 85 92.02  72.02 105  55.5 105  C 38.98 105  26 92.02  26 75.5  C 26 58.98  38.98 46  55.5 46  Z " fill-rule="nonzero" fill="#ffffff" stroke="none" />
    <path d="M 55.5 46.5  C 71.74 46.5  84.5 59.26  84.5 75.5  C 84.5 91.74  71.74 104.5  55.5 104.5  C 39.26 104.5  26.5 91.74  26.5 75.5  C 26.5 59.26  39.26 46.5  55.5 46.5  Z " stroke-width="1" stroke="#797979" fill="none" />
  </g>
</svg>